<svg xmlns="http://www.w3.org/2000/svg" viewBox="0 0 300 219" width="300" height="219"><g transform="scale(0.196850 0.196237)"><g transform="translate(0,1116) scale(0.1,-0.1)"><g transform="translate(7620 5580) scale(1.0) translate(-7620 -5580)"><path d="M7480 11148 c0 -6 -18 -27 -39 -48 -38 -34 -40 -39 -43 -106 -3 -69 -3 -69 -52 -72 -48 -3 -49 -4 -207 -163 -120 -121 -164 -159 -183 -159 -15 0 -30 -8 -36 -20 -7 -13 -21 -20 -40 -20 -19 0 -33 -7 -40 -19 -8 -15 -23 -21 -63 -23 -51 -3 -52 -4 -57 -38 -4 -31 -9 -35 -37 -38 -20 -2 -37 -11 -43 -23 -7 -12 -21 -19 -40 -19 -19 0 -33 -7 -40 -20 -8 -16 -21 -20 -60 -20 -39 0 -52 -4 -60 -20 -8 -16 -21 -20 -58 -20 -42 0 -51 -4 -82 -40 -31 -36 -40 -40 -82 -40 -37 0 -50 -4 -58 -20 -10 -19 -21 -20 -220 -20 -199 0 -210 -1 -220 -20 -10 -19 -21 -20 -240 -20 -219 0 -230 -1 -240 -20 -8 -16 -21 -20 -58 -20 -42 0 -51 -4 -82 -40 -21 -24 -44 -40 -58 -40 -30 0 -162 -131 -162 -161 0 -13 -17 -37 -39 -58 -25 -23 -40 -47 -43 -66 -3 -26 -8 -30 -35 -33 -20 -2 -37 -11 -43 -23 -10 -18 -24 -19 -280 -19 -258 0 -270 -1 -280 -20 -10 -19 -23 -20 -263 -22 -252 -3 -252 -3 -255 -32 -5 -39 -89 -123 -128 -128 -29 -3 -29 -3 -34 -218 l-5 -215 -92 -3 c-80 -2 -94 -5 -103 -22 -10 -19 -27 -20 -643 -22 l-632 -3 -5 -35 c-5 -35 -5 -35 -174 -38 -168 -2 -168 -2 -196 -31 -16 -15 -30 -41 -32 -57 -3 -27 -6 -29 -52 -32 -38 -2 -55 -10 -77 -31 -21 -22 -29 -39 -31 -77 -3 -46 -5 -49 -32 -52 -16 -2 -42 -16 -58 -32 -28 -28 -28 -29 -28 -154 0 -114 -2 -126 -19 -136 -12 -6 -21 -23 -23 -43 -3 -28 -7 -33 -38 -37 l-35 -5 -3 -272 c-2 -260 -3 -273 -22 -283 -18 -9 -20 -21 -20 -100 0 -79 -2 -91 -20 -100 -18 -10 -20 -21 -20 -120 0 -99 -2 -110 -20 -120 -13 -7 -20 -21 -20 -40 0 -19 -7 -33 -20 -40 -16 -8 -20 -21 -20 -60 0 -39 -4 -52 -20 -60 -17 -9 -20 -23 -22 -103 -3 -92 -3 -92 -32 -95 -38 -5 -86 -53 -86 -86 0 -15 -8 -30 -20 -36 -16 -8 -20 -21 -20 -56 0 -43 -4 -50 -60 -104 -43 -41 -60 -65 -60 -84 0 -15 -8 -30 -20 -36 -12 -6 -20 -21 -20 -36 0 -19 -17 -43 -60 -84 -37 -35 -60 -66 -60 -79 0 -32 -130 -159 -166 -163 -24 -2 -30 -9 -32 -32 -4 -35 -92 -126 -122 -126 -14 0 -57 -36 -120 -100 -54 -55 -103 -100 -109 -100 -7 0 -11 -30 -11 -80 0 -52 4 -80 11 -80 6 0 37 -27 69 -60 35 -36 66 -60 79 -60 31 0 441 -412 441 -442 0 -14 16 -37 40 -58 28 -25 40 -43 40 -62 0 -17 8 -31 20 -38 12 -7 20 -21 20 -38 0 -19 12 -37 40 -62 28 -25 40 -43 40 -62 0 -17 8 -31 20 -38 16 -8 20 -21 20 -60 0 -39 4 -52 20 -60 13 -7 20 -21 20 -40 0 -19 7 -33 20 -40 13 -7 20 -21 20 -40 0 -19 7 -33 20 -40 16 -8 20 -21 20 -60 0 -39 4 -52 20 -60 13 -7 20 -21 20 -40 0 -19 7 -33 20 -40 17 -9 20 -21 20 -80 0 -59 3 -71 20 -80 17 -9 20 -21 20 -80 0 -59 3 -71 20 -80 19 -10 20 -21 20 -360 0 -339 1 -350 20 -360 19 -10 20 -21 20 -160 0 -139 1 -150 20 -160 16 -8 20 -21 20 -58 0 -42 4 -51 40 -82 25 -22 40 -44 40 -58 0 -30 51 -82 80 -82 14 0 50 -29 100 -80 57 -59 85 -80 104 -80 15 0 30 -8 36 -20 7 -13 21 -20 40 -20 19 0 33 -7 40 -20 10 -19 21 -20 180 -20 159 0 170 -1 180 -20 10 -18 21 -20 120 -20 99 0 110 2 120 20 10 19 21 20 300 20 279 0 290 -1 300 -20 16 -29 104 -29 120 0 10 19 21 20 176 20 166 0 166 0 195 -29 29 -29 29 -29 29 -291 l0 -261 50 -49 49 -50 601 0 c602 0 602 0 631 -29 16 -16 29 -39 29 -50 0 -32 212 -241 244 -241 15 0 30 -8 36 -20 7 -13 21 -20 40 -20 19 0 33 -7 40 -20 10 -19 21 -20 320 -20 299 0 310 -1 320 -20 9 -17 21 -20 80 -20 59 0 71 -3 80 -20 10 -18 21 -20 120 -20 99 0 110 -2 120 -20 8 -16 21 -20 60 -20 39 0 52 -4 60 -20 7 -13 21 -20 40 -20 19 0 33 -7 40 -20 7 -13 21 -20 40 -20 19 0 33 -7 40 -20 8 -16 21 -20 58 -20 42 0 51 -4 82 -40 31 -35 40 -40 80 -40 40 0 49 -5 80 -40 22 -25 44 -40 58 -40 16 0 49 -25 102 -80 50 -51 86 -80 100 -80 30 0 78 -51 82 -86 3 -25 8 -30 38 -34 30 -4 35 -9 38 -35 3 -19 18 -43 43 -66 23 -21 39 -45 39 -58 0 -15 27 -49 80 -101 52 -51 80 -86 80 -100 0 -14 22 -44 60 -80 33 -32 60 -63 60 -69 0 -7 23 -11 60 -11 41 0 60 4 60 13 0 6 18 28 40 47 28 25 40 43 40 62 0 17 8 31 20 38 12 6 20 21 20 35 0 36 369 405 405 405 14 0 29 8 35 20 6 12 21 20 36 20 19 0 43 17 83 59 53 55 61 60 107 63 48 3 49 4 54 38 4 31 9 35 37 38 20 2 37 11 43 23 8 15 21 19 60 19 39 0 52 4 60 20 8 16 21 20 60 20 39 0 52 4 60 20 7 13 21 20 40 20 19 0 33 7 40 20 7 13 21 20 40 20 19 0 33 7 40 20 9 17 21 20 80 20 59 0 71 3 80 20 9 17 21 20 80 20 59 0 71 3 80 20 10 19 21 20 280 20 259 0 270 1 280 20 10 19 21 20 158 20 147 0 147 0 182 40 21 24 44 40 58 40 33 0 239 208 244 247 2 24 8 28 35 31 20 2 37 11 43 23 10 18 28 19 616 19 l605 0 49 50 50 49 0 241 c0 242 0 242 29 270 22 22 39 29 77 32 48 3 49 4 54 38 l5 35 352 3 c344 2 352 2 363 -18 15 -27 65 -27 80 0 10 19 21 20 180 20 159 0 170 1 180 20 7 13 21 20 40 20 19 0 33 7 40 20 9 18 21 20 100 20 79 0 91 2 100 20 8 16 21 20 56 20 44 0 49 3 124 80 57 59 85 80 104 80 15 0 30 8 36 19 6 12 23 21 43 23 28 3 32 7 35 35 2 20 11 37 23 43 17 9 19 22 19 100 0 79 2 91 20 100 13 7 20 21 20 40 0 19 7 33 20 40 19 10 20 21 20 420 0 399 1 410 20 420 19 10 20 21 20 160 0 139 1 150 20 160 17 9 20 21 20 80 0 59 3 71 20 80 13 7 20 21 20 40 0 19 7 33 20 40 13 7 20 21 20 40 0 19 7 33 20 40 17 9 20 21 20 80 0 59 3 71 20 80 12 7 20 21 20 37 0 18 13 38 39 62 25 23 40 47 43 66 3 26 8 31 38 35 30 4 35 9 38 35 3 19 18 43 43 66 34 31 39 42 39 79 0 39 5 47 60 100 37 36 60 66 60 80 0 38 52 80 100 80 36 0 47 6 90 50 34 33 50 57 50 74 0 15 8 30 20 36 12 6 20 21 20 36 0 32 90 124 121 124 13 0 43 23 79 60 41 43 65 60 84 60 15 0 30 8 36 20 6 11 17 20 25 20 12 0 15 16 15 80 0 64 -3 80 -15 80 -8 0 -19 9 -25 20 -7 13 -21 20 -40 20 -19 0 -33 7 -40 19 -6 12 -23 21 -43 23 -28 3 -33 7 -37 38 -4 30 -9 35 -35 38 -19 3 -43 18 -66 43 -24 26 -44 39 -62 39 -16 0 -30 8 -37 20 -7 13 -21 20 -40 20 -19 0 -33 7 -40 19 -6 12 -23 21 -43 23 -27 3 -33 7 -35 32 -3 21 -30 55 -102 126 -99 98 -99 98 -102 166 -3 68 -4 69 -32 72 -20 3 -54 29 -117 92 -86 86 -89 91 -89 134 0 35 -5 48 -20 56 -13 7 -20 21 -20 40 0 19 -7 33 -20 40 -12 7 -20 21 -20 38 0 19 -12 37 -40 62 -40 35 -40 35 -40 120 0 85 0 85 -40 120 -40 35 -40 35 -40 140 0 105 0 105 -40 140 -40 35 -40 35 -40 202 0 157 -1 168 -20 178 -19 10 -20 21 -20 219 0 205 0 209 22 223 23 15 23 16 -40 76 -44 43 -62 67 -62 86 0 15 -8 30 -20 36 -16 8 -20 21 -20 60 0 39 -4 52 -20 60 -12 7 -20 21 -20 38 0 19 -12 37 -40 62 -24 21 -40 44 -40 58 0 15 -30 52 -90 112 -89 90 -89 90 -154 90 -55 0 -67 3 -76 20 -8 16 -21 20 -60 20 -39 0 -52 4 -60 20 -10 19 -21 20 -380 20 -359 0 -370 -1 -380 -20 -10 -19 -21 -20 -336 -20 l-325 0 -49 50 -50 49 0 185 c0 175 -1 186 -20 196 -12 6 -20 21 -20 36 0 15 -12 38 -29 55 -29 29 -29 29 -355 29 -315 0 -326 -1 -336 -20 -10 -19 -21 -20 -220 -20 -199 0 -210 1 -220 20 -6 12 -21 20 -36 20 -31 0 -84 50 -84 79 0 14 -52 73 -150 171 -148 149 -150 150 -194 150 -35 0 -48 5 -56 20 -10 19 -21 20 -320 20 -299 0 -310 1 -320 20 -10 18 -21 20 -120 20 -99 0 -110 2 -120 20 -9 17 -21 20 -80 20 -59 0 -71 3 -80 20 -7 13 -21 20 -40 20 -19 0 -33 7 -40 20 -9 17 -21 20 -80 20 -59 0 -71 3 -80 20 -7 13 -21 20 -40 20 -19 0 -33 7 -40 20 -7 13 -21 20 -40 20 -19 0 -33 7 -40 20 -7 13 -21 20 -40 20 -19 0 -33 7 -40 20 -6 12 -21 20 -36 20 -19 0 -47 21 -104 80 -73 74 -81 80 -119 80 -38 0 -48 6 -111 70 -43 42 -70 78 -70 90 0 28 -52 80 -80 80 -29 0 -160 132 -160 162 0 14 -16 37 -40 58 -22 19 -40 41 -40 48 0 9 -27 12 -100 12 -69 0 -100 -4 -100 -12z" fill="#C9962C"/></g></g><g transform="translate(0,1116) scale(0.1,-0.1)"><g transform="translate(7620 5580) scale(0.962) translate(-7620 -5580)"><path d="M7480 11148 c0 -6 -18 -27 -39 -48 -38 -34 -40 -39 -43 -106 -3 -69 -3 -69 -52 -72 -48 -3 -49 -4 -207 -163 -120 -121 -164 -159 -183 -159 -15 0 -30 -8 -36 -20 -7 -13 -21 -20 -40 -20 -19 0 -33 -7 -40 -19 -8 -15 -23 -21 -63 -23 -51 -3 -52 -4 -57 -38 -4 -31 -9 -35 -37 -38 -20 -2 -37 -11 -43 -23 -7 -12 -21 -19 -40 -19 -19 0 -33 -7 -40 -20 -8 -16 -21 -20 -60 -20 -39 0 -52 -4 -60 -20 -8 -16 -21 -20 -58 -20 -42 0 -51 -4 -82 -40 -31 -36 -40 -40 -82 -40 -37 0 -50 -4 -58 -20 -10 -19 -21 -20 -220 -20 -199 0 -210 -1 -220 -20 -10 -19 -21 -20 -240 -20 -219 0 -230 -1 -240 -20 -8 -16 -21 -20 -58 -20 -42 0 -51 -4 -82 -40 -21 -24 -44 -40 -58 -40 -30 0 -162 -131 -162 -161 0 -13 -17 -37 -39 -58 -25 -23 -40 -47 -43 -66 -3 -26 -8 -30 -35 -33 -20 -2 -37 -11 -43 -23 -10 -18 -24 -19 -280 -19 -258 0 -270 -1 -280 -20 -10 -19 -23 -20 -263 -22 -252 -3 -252 -3 -255 -32 -5 -39 -89 -123 -128 -128 -29 -3 -29 -3 -34 -218 l-5 -215 -92 -3 c-80 -2 -94 -5 -103 -22 -10 -19 -27 -20 -643 -22 l-632 -3 -5 -35 c-5 -35 -5 -35 -174 -38 -168 -2 -168 -2 -196 -31 -16 -15 -30 -41 -32 -57 -3 -27 -6 -29 -52 -32 -38 -2 -55 -10 -77 -31 -21 -22 -29 -39 -31 -77 -3 -46 -5 -49 -32 -52 -16 -2 -42 -16 -58 -32 -28 -28 -28 -29 -28 -154 0 -114 -2 -126 -19 -136 -12 -6 -21 -23 -23 -43 -3 -28 -7 -33 -38 -37 l-35 -5 -3 -272 c-2 -260 -3 -273 -22 -283 -18 -9 -20 -21 -20 -100 0 -79 -2 -91 -20 -100 -18 -10 -20 -21 -20 -120 0 -99 -2 -110 -20 -120 -13 -7 -20 -21 -20 -40 0 -19 -7 -33 -20 -40 -16 -8 -20 -21 -20 -60 0 -39 -4 -52 -20 -60 -17 -9 -20 -23 -22 -103 -3 -92 -3 -92 -32 -95 -38 -5 -86 -53 -86 -86 0 -15 -8 -30 -20 -36 -16 -8 -20 -21 -20 -56 0 -43 -4 -50 -60 -104 -43 -41 -60 -65 -60 -84 0 -15 -8 -30 -20 -36 -12 -6 -20 -21 -20 -36 0 -19 -17 -43 -60 -84 -37 -35 -60 -66 -60 -79 0 -32 -130 -159 -166 -163 -24 -2 -30 -9 -32 -32 -4 -35 -92 -126 -122 -126 -14 0 -57 -36 -120 -100 -54 -55 -103 -100 -109 -100 -7 0 -11 -30 -11 -80 0 -52 4 -80 11 -80 6 0 37 -27 69 -60 35 -36 66 -60 79 -60 31 0 441 -412 441 -442 0 -14 16 -37 40 -58 28 -25 40 -43 40 -62 0 -17 8 -31 20 -38 12 -7 20 -21 20 -38 0 -19 12 -37 40 -62 28 -25 40 -43 40 -62 0 -17 8 -31 20 -38 16 -8 20 -21 20 -60 0 -39 4 -52 20 -60 13 -7 20 -21 20 -40 0 -19 7 -33 20 -40 13 -7 20 -21 20 -40 0 -19 7 -33 20 -40 16 -8 20 -21 20 -60 0 -39 4 -52 20 -60 13 -7 20 -21 20 -40 0 -19 7 -33 20 -40 17 -9 20 -21 20 -80 0 -59 3 -71 20 -80 17 -9 20 -21 20 -80 0 -59 3 -71 20 -80 19 -10 20 -21 20 -360 0 -339 1 -350 20 -360 19 -10 20 -21 20 -160 0 -139 1 -150 20 -160 16 -8 20 -21 20 -58 0 -42 4 -51 40 -82 25 -22 40 -44 40 -58 0 -30 51 -82 80 -82 14 0 50 -29 100 -80 57 -59 85 -80 104 -80 15 0 30 -8 36 -20 7 -13 21 -20 40 -20 19 0 33 -7 40 -20 10 -19 21 -20 180 -20 159 0 170 -1 180 -20 10 -18 21 -20 120 -20 99 0 110 2 120 20 10 19 21 20 300 20 279 0 290 -1 300 -20 16 -29 104 -29 120 0 10 19 21 20 176 20 166 0 166 0 195 -29 29 -29 29 -29 29 -291 l0 -261 50 -49 49 -50 601 0 c602 0 602 0 631 -29 16 -16 29 -39 29 -50 0 -32 212 -241 244 -241 15 0 30 -8 36 -20 7 -13 21 -20 40 -20 19 0 33 -7 40 -20 10 -19 21 -20 320 -20 299 0 310 -1 320 -20 9 -17 21 -20 80 -20 59 0 71 -3 80 -20 10 -18 21 -20 120 -20 99 0 110 -2 120 -20 8 -16 21 -20 60 -20 39 0 52 -4 60 -20 7 -13 21 -20 40 -20 19 0 33 -7 40 -20 7 -13 21 -20 40 -20 19 0 33 -7 40 -20 8 -16 21 -20 58 -20 42 0 51 -4 82 -40 31 -35 40 -40 80 -40 40 0 49 -5 80 -40 22 -25 44 -40 58 -40 16 0 49 -25 102 -80 50 -51 86 -80 100 -80 30 0 78 -51 82 -86 3 -25 8 -30 38 -34 30 -4 35 -9 38 -35 3 -19 18 -43 43 -66 23 -21 39 -45 39 -58 0 -15 27 -49 80 -101 52 -51 80 -86 80 -100 0 -14 22 -44 60 -80 33 -32 60 -63 60 -69 0 -7 23 -11 60 -11 41 0 60 4 60 13 0 6 18 28 40 47 28 25 40 43 40 62 0 17 8 31 20 38 12 6 20 21 20 35 0 36 369 405 405 405 14 0 29 8 35 20 6 12 21 20 36 20 19 0 43 17 83 59 53 55 61 60 107 63 48 3 49 4 54 38 4 31 9 35 37 38 20 2 37 11 43 23 8 15 21 19 60 19 39 0 52 4 60 20 8 16 21 20 60 20 39 0 52 4 60 20 7 13 21 20 40 20 19 0 33 7 40 20 7 13 21 20 40 20 19 0 33 7 40 20 9 17 21 20 80 20 59 0 71 3 80 20 9 17 21 20 80 20 59 0 71 3 80 20 10 19 21 20 280 20 259 0 270 1 280 20 10 19 21 20 158 20 147 0 147 0 182 40 21 24 44 40 58 40 33 0 239 208 244 247 2 24 8 28 35 31 20 2 37 11 43 23 10 18 28 19 616 19 l605 0 49 50 50 49 0 241 c0 242 0 242 29 270 22 22 39 29 77 32 48 3 49 4 54 38 l5 35 352 3 c344 2 352 2 363 -18 15 -27 65 -27 80 0 10 19 21 20 180 20 159 0 170 1 180 20 7 13 21 20 40 20 19 0 33 7 40 20 9 18 21 20 100 20 79 0 91 2 100 20 8 16 21 20 56 20 44 0 49 3 124 80 57 59 85 80 104 80 15 0 30 8 36 19 6 12 23 21 43 23 28 3 32 7 35 35 2 20 11 37 23 43 17 9 19 22 19 100 0 79 2 91 20 100 13 7 20 21 20 40 0 19 7 33 20 40 19 10 20 21 20 420 0 399 1 410 20 420 19 10 20 21 20 160 0 139 1 150 20 160 17 9 20 21 20 80 0 59 3 71 20 80 13 7 20 21 20 40 0 19 7 33 20 40 13 7 20 21 20 40 0 19 7 33 20 40 17 9 20 21 20 80 0 59 3 71 20 80 12 7 20 21 20 37 0 18 13 38 39 62 25 23 40 47 43 66 3 26 8 31 38 35 30 4 35 9 38 35 3 19 18 43 43 66 34 31 39 42 39 79 0 39 5 47 60 100 37 36 60 66 60 80 0 38 52 80 100 80 36 0 47 6 90 50 34 33 50 57 50 74 0 15 8 30 20 36 12 6 20 21 20 36 0 32 90 124 121 124 13 0 43 23 79 60 41 43 65 60 84 60 15 0 30 8 36 20 6 11 17 20 25 20 12 0 15 16 15 80 0 64 -3 80 -15 80 -8 0 -19 9 -25 20 -7 13 -21 20 -40 20 -19 0 -33 7 -40 19 -6 12 -23 21 -43 23 -28 3 -33 7 -37 38 -4 30 -9 35 -35 38 -19 3 -43 18 -66 43 -24 26 -44 39 -62 39 -16 0 -30 8 -37 20 -7 13 -21 20 -40 20 -19 0 -33 7 -40 19 -6 12 -23 21 -43 23 -27 3 -33 7 -35 32 -3 21 -30 55 -102 126 -99 98 -99 98 -102 166 -3 68 -4 69 -32 72 -20 3 -54 29 -117 92 -86 86 -89 91 -89 134 0 35 -5 48 -20 56 -13 7 -20 21 -20 40 0 19 -7 33 -20 40 -12 7 -20 21 -20 38 0 19 -12 37 -40 62 -40 35 -40 35 -40 120 0 85 0 85 -40 120 -40 35 -40 35 -40 140 0 105 0 105 -40 140 -40 35 -40 35 -40 202 0 157 -1 168 -20 178 -19 10 -20 21 -20 219 0 205 0 209 22 223 23 15 23 16 -40 76 -44 43 -62 67 -62 86 0 15 -8 30 -20 36 -16 8 -20 21 -20 60 0 39 -4 52 -20 60 -12 7 -20 21 -20 38 0 19 -12 37 -40 62 -24 21 -40 44 -40 58 0 15 -30 52 -90 112 -89 90 -89 90 -154 90 -55 0 -67 3 -76 20 -8 16 -21 20 -60 20 -39 0 -52 4 -60 20 -10 19 -21 20 -380 20 -359 0 -370 -1 -380 -20 -10 -19 -21 -20 -336 -20 l-325 0 -49 50 -50 49 0 185 c0 175 -1 186 -20 196 -12 6 -20 21 -20 36 0 15 -12 38 -29 55 -29 29 -29 29 -355 29 -315 0 -326 -1 -336 -20 -10 -19 -21 -20 -220 -20 -199 0 -210 1 -220 20 -6 12 -21 20 -36 20 -31 0 -84 50 -84 79 0 14 -52 73 -150 171 -148 149 -150 150 -194 150 -35 0 -48 5 -56 20 -10 19 -21 20 -320 20 -299 0 -310 1 -320 20 -10 18 -21 20 -120 20 -99 0 -110 2 -120 20 -9 17 -21 20 -80 20 -59 0 -71 3 -80 20 -7 13 -21 20 -40 20 -19 0 -33 7 -40 20 -9 17 -21 20 -80 20 -59 0 -71 3 -80 20 -7 13 -21 20 -40 20 -19 0 -33 7 -40 20 -7 13 -21 20 -40 20 -19 0 -33 7 -40 20 -7 13 -21 20 -40 20 -19 0 -33 7 -40 20 -6 12 -21 20 -36 20 -19 0 -47 21 -104 80 -73 74 -81 80 -119 80 -38 0 -48 6 -111 70 -43 42 -70 78 -70 90 0 28 -52 80 -80 80 -29 0 -160 132 -160 162 0 14 -16 37 -40 58 -22 19 -40 41 -40 48 0 9 -27 12 -100 12 -69 0 -100 -4 -100 -12z" fill="#C4123F"/></g></g><g transform="translate(0,1116) scale(0.1,-0.1)"><g transform="translate(7620 5580) scale(0.885) translate(-7620 -5580)"><path d="M7480 11148 c0 -6 -18 -27 -39 -48 -38 -34 -40 -39 -43 -106 -3 -69 -3 -69 -52 -72 -48 -3 -49 -4 -207 -163 -120 -121 -164 -159 -183 -159 -15 0 -30 -8 -36 -20 -7 -13 -21 -20 -40 -20 -19 0 -33 -7 -40 -19 -8 -15 -23 -21 -63 -23 -51 -3 -52 -4 -57 -38 -4 -31 -9 -35 -37 -38 -20 -2 -37 -11 -43 -23 -7 -12 -21 -19 -40 -19 -19 0 -33 -7 -40 -20 -8 -16 -21 -20 -60 -20 -39 0 -52 -4 -60 -20 -8 -16 -21 -20 -58 -20 -42 0 -51 -4 -82 -40 -31 -36 -40 -40 -82 -40 -37 0 -50 -4 -58 -20 -10 -19 -21 -20 -220 -20 -199 0 -210 -1 -220 -20 -10 -19 -21 -20 -240 -20 -219 0 -230 -1 -240 -20 -8 -16 -21 -20 -58 -20 -42 0 -51 -4 -82 -40 -21 -24 -44 -40 -58 -40 -30 0 -162 -131 -162 -161 0 -13 -17 -37 -39 -58 -25 -23 -40 -47 -43 -66 -3 -26 -8 -30 -35 -33 -20 -2 -37 -11 -43 -23 -10 -18 -24 -19 -280 -19 -258 0 -270 -1 -280 -20 -10 -19 -23 -20 -263 -22 -252 -3 -252 -3 -255 -32 -5 -39 -89 -123 -128 -128 -29 -3 -29 -3 -34 -218 l-5 -215 -92 -3 c-80 -2 -94 -5 -103 -22 -10 -19 -27 -20 -643 -22 l-632 -3 -5 -35 c-5 -35 -5 -35 -174 -38 -168 -2 -168 -2 -196 -31 -16 -15 -30 -41 -32 -57 -3 -27 -6 -29 -52 -32 -38 -2 -55 -10 -77 -31 -21 -22 -29 -39 -31 -77 -3 -46 -5 -49 -32 -52 -16 -2 -42 -16 -58 -32 -28 -28 -28 -29 -28 -154 0 -114 -2 -126 -19 -136 -12 -6 -21 -23 -23 -43 -3 -28 -7 -33 -38 -37 l-35 -5 -3 -272 c-2 -260 -3 -273 -22 -283 -18 -9 -20 -21 -20 -100 0 -79 -2 -91 -20 -100 -18 -10 -20 -21 -20 -120 0 -99 -2 -110 -20 -120 -13 -7 -20 -21 -20 -40 0 -19 -7 -33 -20 -40 -16 -8 -20 -21 -20 -60 0 -39 -4 -52 -20 -60 -17 -9 -20 -23 -22 -103 -3 -92 -3 -92 -32 -95 -38 -5 -86 -53 -86 -86 0 -15 -8 -30 -20 -36 -16 -8 -20 -21 -20 -56 0 -43 -4 -50 -60 -104 -43 -41 -60 -65 -60 -84 0 -15 -8 -30 -20 -36 -12 -6 -20 -21 -20 -36 0 -19 -17 -43 -60 -84 -37 -35 -60 -66 -60 -79 0 -32 -130 -159 -166 -163 -24 -2 -30 -9 -32 -32 -4 -35 -92 -126 -122 -126 -14 0 -57 -36 -120 -100 -54 -55 -103 -100 -109 -100 -7 0 -11 -30 -11 -80 0 -52 4 -80 11 -80 6 0 37 -27 69 -60 35 -36 66 -60 79 -60 31 0 441 -412 441 -442 0 -14 16 -37 40 -58 28 -25 40 -43 40 -62 0 -17 8 -31 20 -38 12 -7 20 -21 20 -38 0 -19 12 -37 40 -62 28 -25 40 -43 40 -62 0 -17 8 -31 20 -38 16 -8 20 -21 20 -60 0 -39 4 -52 20 -60 13 -7 20 -21 20 -40 0 -19 7 -33 20 -40 13 -7 20 -21 20 -40 0 -19 7 -33 20 -40 16 -8 20 -21 20 -60 0 -39 4 -52 20 -60 13 -7 20 -21 20 -40 0 -19 7 -33 20 -40 17 -9 20 -21 20 -80 0 -59 3 -71 20 -80 17 -9 20 -21 20 -80 0 -59 3 -71 20 -80 19 -10 20 -21 20 -360 0 -339 1 -350 20 -360 19 -10 20 -21 20 -160 0 -139 1 -150 20 -160 16 -8 20 -21 20 -58 0 -42 4 -51 40 -82 25 -22 40 -44 40 -58 0 -30 51 -82 80 -82 14 0 50 -29 100 -80 57 -59 85 -80 104 -80 15 0 30 -8 36 -20 7 -13 21 -20 40 -20 19 0 33 -7 40 -20 10 -19 21 -20 180 -20 159 0 170 -1 180 -20 10 -18 21 -20 120 -20 99 0 110 2 120 20 10 19 21 20 300 20 279 0 290 -1 300 -20 16 -29 104 -29 120 0 10 19 21 20 176 20 166 0 166 0 195 -29 29 -29 29 -29 29 -291 l0 -261 50 -49 49 -50 601 0 c602 0 602 0 631 -29 16 -16 29 -39 29 -50 0 -32 212 -241 244 -241 15 0 30 -8 36 -20 7 -13 21 -20 40 -20 19 0 33 -7 40 -20 10 -19 21 -20 320 -20 299 0 310 -1 320 -20 9 -17 21 -20 80 -20 59 0 71 -3 80 -20 10 -18 21 -20 120 -20 99 0 110 -2 120 -20 8 -16 21 -20 60 -20 39 0 52 -4 60 -20 7 -13 21 -20 40 -20 19 0 33 -7 40 -20 7 -13 21 -20 40 -20 19 0 33 -7 40 -20 8 -16 21 -20 58 -20 42 0 51 -4 82 -40 31 -35 40 -40 80 -40 40 0 49 -5 80 -40 22 -25 44 -40 58 -40 16 0 49 -25 102 -80 50 -51 86 -80 100 -80 30 0 78 -51 82 -86 3 -25 8 -30 38 -34 30 -4 35 -9 38 -35 3 -19 18 -43 43 -66 23 -21 39 -45 39 -58 0 -15 27 -49 80 -101 52 -51 80 -86 80 -100 0 -14 22 -44 60 -80 33 -32 60 -63 60 -69 0 -7 23 -11 60 -11 41 0 60 4 60 13 0 6 18 28 40 47 28 25 40 43 40 62 0 17 8 31 20 38 12 6 20 21 20 35 0 36 369 405 405 405 14 0 29 8 35 20 6 12 21 20 36 20 19 0 43 17 83 59 53 55 61 60 107 63 48 3 49 4 54 38 4 31 9 35 37 38 20 2 37 11 43 23 8 15 21 19 60 19 39 0 52 4 60 20 8 16 21 20 60 20 39 0 52 4 60 20 7 13 21 20 40 20 19 0 33 7 40 20 7 13 21 20 40 20 19 0 33 7 40 20 9 17 21 20 80 20 59 0 71 3 80 20 9 17 21 20 80 20 59 0 71 3 80 20 10 19 21 20 280 20 259 0 270 1 280 20 10 19 21 20 158 20 147 0 147 0 182 40 21 24 44 40 58 40 33 0 239 208 244 247 2 24 8 28 35 31 20 2 37 11 43 23 10 18 28 19 616 19 l605 0 49 50 50 49 0 241 c0 242 0 242 29 270 22 22 39 29 77 32 48 3 49 4 54 38 l5 35 352 3 c344 2 352 2 363 -18 15 -27 65 -27 80 0 10 19 21 20 180 20 159 0 170 1 180 20 7 13 21 20 40 20 19 0 33 7 40 20 9 18 21 20 100 20 79 0 91 2 100 20 8 16 21 20 56 20 44 0 49 3 124 80 57 59 85 80 104 80 15 0 30 8 36 19 6 12 23 21 43 23 28 3 32 7 35 35 2 20 11 37 23 43 17 9 19 22 19 100 0 79 2 91 20 100 13 7 20 21 20 40 0 19 7 33 20 40 19 10 20 21 20 420 0 399 1 410 20 420 19 10 20 21 20 160 0 139 1 150 20 160 17 9 20 21 20 80 0 59 3 71 20 80 13 7 20 21 20 40 0 19 7 33 20 40 13 7 20 21 20 40 0 19 7 33 20 40 17 9 20 21 20 80 0 59 3 71 20 80 12 7 20 21 20 37 0 18 13 38 39 62 25 23 40 47 43 66 3 26 8 31 38 35 30 4 35 9 38 35 3 19 18 43 43 66 34 31 39 42 39 79 0 39 5 47 60 100 37 36 60 66 60 80 0 38 52 80 100 80 36 0 47 6 90 50 34 33 50 57 50 74 0 15 8 30 20 36 12 6 20 21 20 36 0 32 90 124 121 124 13 0 43 23 79 60 41 43 65 60 84 60 15 0 30 8 36 20 6 11 17 20 25 20 12 0 15 16 15 80 0 64 -3 80 -15 80 -8 0 -19 9 -25 20 -7 13 -21 20 -40 20 -19 0 -33 7 -40 19 -6 12 -23 21 -43 23 -28 3 -33 7 -37 38 -4 30 -9 35 -35 38 -19 3 -43 18 -66 43 -24 26 -44 39 -62 39 -16 0 -30 8 -37 20 -7 13 -21 20 -40 20 -19 0 -33 7 -40 19 -6 12 -23 21 -43 23 -27 3 -33 7 -35 32 -3 21 -30 55 -102 126 -99 98 -99 98 -102 166 -3 68 -4 69 -32 72 -20 3 -54 29 -117 92 -86 86 -89 91 -89 134 0 35 -5 48 -20 56 -13 7 -20 21 -20 40 0 19 -7 33 -20 40 -12 7 -20 21 -20 38 0 19 -12 37 -40 62 -40 35 -40 35 -40 120 0 85 0 85 -40 120 -40 35 -40 35 -40 140 0 105 0 105 -40 140 -40 35 -40 35 -40 202 0 157 -1 168 -20 178 -19 10 -20 21 -20 219 0 205 0 209 22 223 23 15 23 16 -40 76 -44 43 -62 67 -62 86 0 15 -8 30 -20 36 -16 8 -20 21 -20 60 0 39 -4 52 -20 60 -12 7 -20 21 -20 38 0 19 -12 37 -40 62 -24 21 -40 44 -40 58 0 15 -30 52 -90 112 -89 90 -89 90 -154 90 -55 0 -67 3 -76 20 -8 16 -21 20 -60 20 -39 0 -52 4 -60 20 -10 19 -21 20 -380 20 -359 0 -370 -1 -380 -20 -10 -19 -21 -20 -336 -20 l-325 0 -49 50 -50 49 0 185 c0 175 -1 186 -20 196 -12 6 -20 21 -20 36 0 15 -12 38 -29 55 -29 29 -29 29 -355 29 -315 0 -326 -1 -336 -20 -10 -19 -21 -20 -220 -20 -199 0 -210 1 -220 20 -6 12 -21 20 -36 20 -31 0 -84 50 -84 79 0 14 -52 73 -150 171 -148 149 -150 150 -194 150 -35 0 -48 5 -56 20 -10 19 -21 20 -320 20 -299 0 -310 1 -320 20 -10 18 -21 20 -120 20 -99 0 -110 2 -120 20 -9 17 -21 20 -80 20 -59 0 -71 3 -80 20 -7 13 -21 20 -40 20 -19 0 -33 7 -40 20 -9 17 -21 20 -80 20 -59 0 -71 3 -80 20 -7 13 -21 20 -40 20 -19 0 -33 7 -40 20 -7 13 -21 20 -40 20 -19 0 -33 7 -40 20 -7 13 -21 20 -40 20 -19 0 -33 7 -40 20 -6 12 -21 20 -36 20 -19 0 -47 21 -104 80 -73 74 -81 80 -119 80 -38 0 -48 6 -111 70 -43 42 -70 78 -70 90 0 28 -52 80 -80 80 -29 0 -160 132 -160 162 0 14 -16 37 -40 58 -22 19 -40 41 -40 48 0 9 -27 12 -100 12 -69 0 -100 -4 -100 -12z" fill="none" stroke="#C9962C" stroke-width="22"/></g></g><text x="762" y="368" text-anchor="middle" textLength="442" lengthAdjust="spacingAndGlyphs" font-family="Bitter,Georgia,serif" font-weight="600" font-size="132" fill="#FBF3DC">OM'S</text><text x="762" y="558" text-anchor="middle" textLength="1006" lengthAdjust="spacingAndGlyphs" font-family="Bitter,Georgia,serif" font-weight="600" font-size="147" fill="#FBF3DC">DEHLII DARBAR</text><text x="762" y="731" text-anchor="middle" textLength="838" lengthAdjust="spacingAndGlyphs" font-family="Bitter,Georgia,serif" font-weight="600" font-size="147" fill="#FBF3DC">MITHAIWALA</text><text x="762" y="893" text-anchor="middle" textLength="579" lengthAdjust="spacingAndGlyphs" font-family="Bitter,Georgia,serif" font-weight="400" font-style="italic" font-size="109" fill="#FBF3DC">Mithai n More</text><g transform="translate(358 859)"><path d="M-52 0 H-12" stroke="#C9962C" stroke-width="5" stroke-linecap="round"/><circle cx="-9" cy="0" r="9" fill="#C9962C"/><path d="M14 0 l-18 -11 v22 z" fill="#C9962C"/></g><g transform="translate(1166 859)"><path d="M52 0 H12" stroke="#C9962C" stroke-width="5" stroke-linecap="round"/><circle cx="9" cy="0" r="9" fill="#C9962C"/><path d="M-14 0 l18 -11 v22 z" fill="#C9962C"/></g><g transform="translate(762 991)" fill="none" stroke="#C9962C" stroke-width="6" stroke-linecap="round"><path d="M-96 0 c22 -18 44 -12 44 4 c0 12 -18 14 -22 2 c-4 -14 16 -22 34 -14"/><path d="M96 0 c-22 -18 -44 -12 -44 4 c0 12 18 14 22 2 c4 -14 -16 -22 -34 -14"/><path d="M-20 2 c8 -12 12 -12 20 0 c8 -12 12 -12 20 0"/></g></g></svg>